# xmcd CD database file
#
# Track frame offsets:
#	150
#	23690
#	44310
#	67852
#
# Disc length: 1175 seconds
#
# Revision: 1
# Processed by: cddbd v1.5PL3 Copyright (c) Steve Scherf et al.
# Submitted via: CDex 1.51
#
DISCID=26049504
DTITLE=BEENY and PINK BUNNY - Kiss!
DYEAR=2003
DGENRE=JPop
TTITLE0=Kiss!
TTITLE1=NEGAI
TTITLE2=Kiss! -instrumental-
TTITLE3=NEGAI -instrumental-
EXTD=YEAR: 2003
EXTT0=
EXTT1=
EXTT2=
EXTT3=
PLAYORDER=
